<?xml version="1.0" standalone="no"?>
<!DOCTYPE svg PUBLIC "-//W3C//DTD SVG 20010904//EN"
 "http://www.w3.org/TR/2001/REC-SVG-20010904/DTD/svg10.dtd">
<svg version="1.0" xmlns="http://www.w3.org/2000/svg"
 width="32.000000pt" height="32.000000pt" viewBox="0 0 32.000000 32.000000"
 preserveAspectRatio="xMidYMid meet">

<g transform="translate(0.000000,32.000000) scale(0.100000,-0.100000)"
fill="#000000" stroke="none">
<path d="M63 300 c-61 -37 -79 -108 -43 -167 33 -54 103 -78 152 -52 18 9 27
5 67 -35 49 -49 68 -56 78 -30 4 10 -10 32 -42 64 -41 41 -45 50 -36 68 38 71
-30 172 -116 172 -15 0 -42 -9 -60 -20z m127 -19 c14 -10 31 -34 39 -54 12
-32 11 -40 -5 -74 -25 -51 -81 -79 -126 -64 -43 15 -65 37 -78 77 -16 46 11
102 60 127 39 19 71 16 110 -12z m78 -214 c23 -24 39 -46 35 -50 -7 -8 -93 71
-93 85 0 17 17 6 58 -35z"/>
<path d="M56 264 c-37 -37 -37 -101 0 -138 21 -20 37 -26 69 -26 59 0 95 36
95 95 0 59 -36 95 -95 95 -32 0 -48 -6 -69 -26z m128 -10 c53 -53 16 -144 -59
-144 -75 0 -112 91 -59 144 18 17 37 26 59 26 22 0 41 -9 59 -26z"/>
<path d="M151 247 c19 -13 36 -22 39 -20 8 7 -41 43 -58 43 -8 0 0 -10 19 -23z"/>
</g>
</svg>
